<mxfile host="app.diagrams.net" modified="2023-09-20T07:53:15.119Z" agent="Mozilla/5.0 (Windows NT 10.0; Win64; x64) AppleWebKit/537.36 (KHTML, like Gecko) Chrome/116.0.0.0 Safari/537.36" version="21.7.5" etag="N9KWuMdR_BUUvFJqvty8" type="github">
  <diagram name="第 1 页" id="Et0Ls2vtmNhoT92vQzlU">
    <mxGraphModel>
      <root>
        <mxCell id="0" />
        <mxCell id="1" parent="0" />
      </root>
    </mxGraphModel>
  </diagram>
</mxfile>
